<svg width="134" height="42" viewBox="0 0 134 42" fill="none" xmlns="http://www.w3.org/2000/svg">
<path d="M101.688 17.1082H98.1145V34.2028H101.688V17.1082ZM34.9302 34.2028H38.5041V17.1082H34.9302V34.2028ZM54.8228 34.2028H58.3967V23.865C58.3967 19.6082 55.632 16.6353 51.5186 16.6353C48.9562 16.6353 47.0006 17.5812 45.5845 19.2028V17.1082H42.0106V34.2028H45.5845V26.2974C45.5845 21.9731 47.6075 19.9461 50.7094 19.9461C53.137 19.9461 54.7554 21.838 54.7554 24.6082L54.8228 34.2028ZM64.5331 21.7704C64.5331 20.5542 65.4771 19.5407 67.5675 19.5407C69.7928 19.5407 71.2089 20.6893 71.4786 22.3109L74.9177 21.5677C74.3108 18.7298 71.6809 16.6353 67.7024 16.6353C63.589 16.6353 60.9592 18.865 60.9592 22.0407C60.9592 24.4731 62.645 26.0271 65.612 26.7028L69.3208 27.4461C70.8717 27.7839 71.6135 28.4596 71.6135 29.4731C71.6135 30.8244 70.3323 31.7704 68.2419 31.7704C66.0166 31.7704 64.1959 30.892 63.9936 28.865L60.4197 29.6082C60.8917 33.0542 64.1285 34.6758 67.9721 34.6758C72.2204 34.6758 75.1874 32.7163 75.1874 29.1353C75.1874 26.7028 73.5016 25.0812 70.7369 24.5407L66.6909 23.6623C65.0725 23.3244 64.5331 22.7163 64.5331 21.7704ZM92.2479 25.6893C92.2479 29.2704 89.8203 31.5677 86.651 31.5677C83.8188 31.5677 81.0541 29.338 81.0541 25.6893C81.0541 22.1082 83.8188 19.8109 86.651 19.8109C89.8203 19.8109 92.2479 22.1082 92.2479 25.6893ZM95.7544 25.6893C95.7544 20.2839 91.7084 16.6353 87.2578 16.6353C84.6954 16.6353 82.605 17.5136 81.0541 19.0677V17.1082H77.5476V41.0947H81.1215V32.3109C82.605 33.7974 84.6954 34.7434 87.3253 34.7434C91.7084 34.6758 95.7544 31.0947 95.7544 25.6893ZM116.321 20.4866L116.591 17.0407C116.119 16.9055 115.782 16.9055 115.377 16.9055C112.41 16.9055 110.252 18.5271 108.904 20.7569V17.1082H105.33V34.2028H108.904V28.1893C108.904 23.5271 111.062 20.4866 115.377 20.4866C115.647 20.4866 116.052 20.4866 116.321 20.4866ZM130.145 24.0001H120.098C120.637 21.2298 123.065 19.8109 125.29 19.8109C127.65 19.8109 129.605 21.1623 130.145 24.0001ZM133.786 26.5001V25.2839C133.584 20.1488 129.808 16.6353 125.29 16.6353C120.502 16.6353 116.456 20.2839 116.456 25.6893C116.456 31.0947 120.502 34.6758 125.155 34.6758C128.931 34.6758 131.966 32.8515 133.382 29.2704L130.212 28.5947C128.999 31.0271 127.11 31.5677 125.222 31.5677C122.727 31.5677 120.435 29.6758 120.098 26.5001H133.786Z" fill="#001A72"/>
<path d="M20.4996 10.892C19.5556 10.419 18.679 9.47305 18.679 8.3244C18.6115 7.31089 19.9602 6.97305 20.5671 7.58116C21.4437 8.3244 20.9717 10.0136 20.4996 10.892ZM28.187 11.2974C31.0866 7.51359 34.2559 4.54062 37.2903 2.919C37.6949 2.7163 37.9647 2.58116 38.2344 2.51359C38.0995 6.36494 32.098 10.3514 28.187 11.2974ZM13.8912 13.8649C8.56407 13.6622 3.77636 10.6217 2.89974 8.79738C4.24839 8.72981 5.59704 9.13522 6.87826 9.54062C9.50813 10.4866 11.8683 12.0406 13.8912 13.8649ZM20.5671 18.7974C19.9602 17.7163 19.2859 16.5676 18.5441 15.5541C19.623 15.1487 20.5671 14.5406 21.3088 13.7298C22.0506 13.9325 22.7923 14.0001 23.5341 14.0676C22.9272 14.8785 21.2414 17.5812 20.5671 18.7974ZM18.0721 24.1352C15.9142 29.2028 14.5656 34.2703 14.161 38.4595C14.0261 40.8244 15.0376 41.7704 16.3188 41.8379C18.679 41.8379 21.1065 38.2568 22.4552 32.8514C23.3992 29.2028 23.1295 25.2163 21.7809 21.5001C21.7809 21.5001 25.3548 15.1487 26.4337 14.0676L26.5011 14.0001C29.5356 13.5947 33.0421 12.5812 37.0206 9.06765C39.9877 6.43251 41.3363 2.78386 40.1225 1.02711C37.1555 -2.95938 27.5126 7.64873 24.8153 11.7704C24.0736 11.7704 23.3992 11.7704 22.7249 11.6352C23.7364 9.40549 23.6015 6.50008 21.5111 5.419C20.7019 4.94603 19.7579 4.87846 18.8813 5.08116C16.8583 5.55413 15.8468 7.44603 16.3863 9.47305C16.656 10.7568 17.6 11.9055 18.8138 12.7163C18.2069 13.1217 17.6 13.392 16.8583 13.5947C13.4866 9.81089 8.96867 7.24332 4.58555 6.56765C3.91123 6.43251 1.82082 6.09468 0.809327 7.37846C0.539597 7.78386 0.135002 8.59468 0.741895 9.81089C3.0346 13.9325 10.3173 16.7703 16.0491 16.1622C17.128 17.446 18.0046 18.8649 18.7464 20.3514C19.5556 21.9055 20.095 23.5947 20.4322 25.3514C20.8368 27.7163 20.7694 30.0136 20.2299 32.2433C19.0836 36.5001 17.8023 38.5271 16.5885 39.3379C16.5885 39.0676 16.5885 38.7974 16.5885 38.5947C16.7908 35.9595 17.5326 32.919 18.6115 29.5406C18.679 27.7839 18.5441 25.892 18.0721 24.1352Z" fill="#0072CE"/>
</svg>
